<svg xmlns="http://www.w3.org/2000/svg" shape-rendering="geometricPrecision" text-rendering="geometricPrecision" image-rendering="optimizeQuality" fill-rule="evenodd" clip-rule="evenodd" viewBox="0 0 512 414.537"><path fill-rule="nonzero" d="M239.328 106.83C203.354 77.208 146.254 36.059 115.302 5.106 107.599.483 98.925-.958 90.875.61c-8.291 1.606-15.867 6.316-21.078 13.928l-1.587 2.598L0 151.952l23.27 11.733c6.285-12.42 46.017-93.326 61.794-123.347 8.421 113.201 50.941 202.355 119.111 265.333 75.272 69.544 181.552 106.777 307.414 108.866L512 388.52c-119.332-1.982-219.659-36.875-290.178-102.028-64.084-59.205-103.812-143.79-111.061-251.776l112.032 92.217 16.535-20.103z"/></svg>