<svg xmlns="http://www.w3.org/2000/svg" xmlns:xlink="http://www.w3.org/1999/xlink" viewBox="0,0,256,256" width="144px" height="144px" fill-rule="nonzero"><g fill="#6e1110" fill-rule="nonzero" stroke="none" stroke-width="1" stroke-linecap="butt" stroke-linejoin="miter" stroke-miterlimit="10" stroke-dasharray="" stroke-dashoffset="0" font-family="none" font-weight="none" font-size="none" text-anchor="none" style="mix-blend-mode: normal"><g transform="scale(10.66667,10.66667)"><path d="M14,3c-1.69922,0 -3,1.41406 -3,3v2.03125c-2.11719,0.14453 -4.02344,0.75391 -5.5625,1.6875c-0.55859,-0.4375 -1.21875,-0.6875 -1.875,-0.6875c-0.72656,0 -1.43359,0.27734 -1.9375,0.84375c-0.95703,1.19531 -0.87109,3.14844 0.46875,4.15625c-0.0625,0.31641 -0.09375,0.63672 -0.09375,0.96875c0,2.05469 1.24219,3.84375 3.0625,5.0625c1.82031,1.21875 4.25781,1.9375 6.9375,1.9375c2.67969,0 5.11719,-0.71875 6.9375,-1.9375c1.82031,-1.21875 3.0625,-3.00781 3.0625,-5.0625c0,-0.33203 -0.0625,-0.65234 -0.125,-0.96875c1.36328,-1.08594 1.50391,-3.02734 0.5,-4.15625c-0.50391,-0.56641 -1.21094,-0.84375 -1.9375,-0.84375c-0.65625,0 -1.31641,0.25 -1.875,0.6875c-1.53906,-0.93359 -3.44531,-1.54297 -5.5625,-1.6875v-2.03125c0,-0.61328 0.30078,-1 1,-1c0.32031,0 0.77344,0.17188 1.53125,0.4375c0.67188,0.23438 1.5625,0.47656 2.71875,0.53125c0.33984,0.61719 1,1.03125 1.75,1.03125c1.10156,0 2,-0.89844 2,-2c0,-1.10156 -0.89844,-2 -2,-2c-0.72656,0 -1.36719,0.38281 -1.71875,0.96875c-0.88672,-0.04297 -1.51172,-0.20312 -2.09375,-0.40625c-0.66797,-0.23437 -1.30859,-0.5625 -2.1875,-0.5625zM20,4c0.60156,0 1,0.39844 1,1c0,0.60156 -0.39844,1 -1,1c-0.60156,0 -1,-0.39844 -1,-1c0,-0.60156 0.39844,-1 1,-1zM12,10c2.32031,0 4.38281,0.63672 5.8125,1.59375c1.42969,0.95703 2.1875,2.16016 2.1875,3.40625c0,1.24609 -0.75781,2.44922 -2.1875,3.40625c-1.42969,0.95703 -3.49219,1.59375 -5.8125,1.59375c-2.32031,0 -4.38281,-0.63672 -5.8125,-1.59375c-1.42969,-0.95703 -2.1875,-2.16016 -2.1875,-3.40625c0,-1.24609 0.75781,-2.44922 2.1875,-3.40625c1.42969,-0.95703 3.49219,-1.59375 5.8125,-1.59375zM3.59375,10.03125c0.33203,0 0.68359,0.07031 1,0.25c-0.96484,0.74219 -1.71484,1.65625 -2.15625,2.6875c-0.58203,-0.6875 -0.57031,-1.77734 -0.0625,-2.4375c0.29688,-0.33594 0.74609,-0.5 1.21875,-0.5zM20.40625,10.03125c0.47266,0 0.92188,0.16406 1.21875,0.5c0.49219,0.55469 0.53125,1.64453 -0.0625,2.40625c-0.44141,-1.02344 -1.19922,-1.91797 -2.15625,-2.65625c0.31641,-0.17969 0.66797,-0.25 1,-0.25zM9,12c-0.82812,0 -1.5,0.67188 -1.5,1.5c0,0.82813 0.67188,1.5 1.5,1.5c0.82813,0 1.5,-0.67187 1.5,-1.5c0,-0.82812 -0.67187,-1.5 -1.5,-1.5zM15,12c-0.82812,0 -1.5,0.67188 -1.5,1.5c0,0.82813 0.67188,1.5 1.5,1.5c0.82813,0 1.5,-0.67187 1.5,-1.5c0,-0.82812 -0.67187,-1.5 -1.5,-1.5zM16.09375,16.40625c-0.89844,0.80078 -2.39453,1.28125 -4.09375,1.28125c-1.69922,0 -3.19531,-0.48828 -4.09375,-1.1875c0.5,1.30078 2.09375,2.5 4.09375,2.5c2,0 3.59375,-1.19531 4.09375,-2.59375z"></path></g></g></svg>