<svg width="512" height="414.537" xmlns="http://www.w3.org/2000/svg" clip-rule="evenodd" fill-rule="evenodd" image-rendering="optimizeQuality" text-rendering="geometricPrecision" shape-rendering="geometricPrecision">

 <g>
  <title>Layer 1</title>
  <path fill="#ffffff" id="svg_1" d="m239.328,106.83c-35.974,-29.622 -93.074,-70.771 -124.026,-101.724c-7.703,-4.623 -16.377,-6.064 -24.427,-4.496c-8.291,1.606 -15.867,6.316 -21.078,13.928l-1.587,2.598l-68.21,134.816l23.27,11.733c6.285,-12.42 46.017,-93.326 61.794,-123.347c8.421,113.201 50.941,202.355 119.111,265.333c75.272,69.544 181.552,106.777 307.414,108.866l0.411,-26.017c-119.332,-1.982 -219.659,-36.875 -290.178,-102.028c-64.084,-59.205 -103.812,-143.79 -111.061,-251.776l112.032,92.217l16.535,-20.103z" fill-rule="nonzero"/>
 </g>
</svg>